<svg width="310" height="310" viewBox="0 0 310 310" fill="none" xmlns="http://www.w3.org/2000/svg">
<path d="M310 181.271V306.702C310 308.461 308.466 309.887 306.574 309.887H125.212C123.32 309.887 121.786 308.461 121.786 306.702V273.643H151.837C155.622 273.643 158.69 270.791 158.69 267.272V244.043H188.742C192.527 244.043 195.595 241.191 195.595 237.672V209.937L225.646 209.937C229.432 209.937 232.5 207.085 232.5 203.567V178.085L306.574 178.085C308.466 178.085 310 179.511 310 181.271Z" fill="#F5D581"/>
<line x1="148.256" y1="5.74066" x2="148.256" y2="40.1851" stroke="#F5D581"/>
<path d="M129.651 40.1852H178.708L192.725 80.3704H115.635L129.651 40.1852Z" stroke="#F5D581" stroke-linejoin="round"/>
<path d="M30.0238 270.926H73.3095V293.511C73.3095 298.647 68.6311 302.904 62.7389 302.904H40.5944C34.7023 302.904 30.0238 298.647 30.0238 293.511V270.926Z" stroke="#F5D581"/>
<line x1="272.595" y1="189.444" x2="272.595" y2="126.296" stroke="#F5D581"/>
<path d="M236.19 181.383L236.19 128.617" stroke="#F5D581"/>
<path d="M199.286 223.889L199.286 131.915" stroke="#F5D581"/>
<path d="M162.381 252.592L162.381 161.596" stroke="#F5D581"/>
<path d="M125.476 278.975L125.476 191.276" stroke="#F5D581"/>
<path d="M25.8325 270.426H77.5008C79.5382 270.426 81.1905 271.164 81.1905 272.075V275.373C81.1905 276.283 79.5382 277.021 77.5008 277.021H25.8325C23.7951 277.021 22.1429 276.283 22.1429 275.373V272.075C22.1429 271.164 23.7951 270.426 25.8325 270.426Z" fill="#F5D581"/>
<path d="M46.3238 264.847C48.3461 267.951 49.485 271.369 49.6682 274.854C44.1595 273.748 39.1957 271.334 35.4185 267.932C32.1159 264.28 30.2538 259.933 30.0424 255.452C35.5573 256.559 40.5262 258.977 44.3053 262.383C45.0361 263.113 45.6843 263.892 46.2427 264.71V264.722L46.3238 264.847Z" stroke="#F5D581"/>
<path d="M55.1908 262.577C53.156 266.245 52.021 270.315 51.8715 274.472H47.4359C47.2917 270.416 46.2071 266.441 44.2625 262.841C44.1662 261.675 44.1741 260.504 44.2868 259.34C45.0915 253.922 47.5765 248.868 51.411 244.839C54.3734 249.491 55.8231 254.897 55.5669 260.357C55.4956 261.104 55.3702 261.846 55.1908 262.577Z" stroke="#F5D581"/>
<path d="M55.9697 262.412C60.5494 258.972 66.5859 256.534 73.2882 255.432C73.0401 259.893 70.818 264.238 66.84 267.902C62.2625 271.338 56.2313 273.773 49.5356 274.874C49.7585 271.324 51.1757 267.834 53.7096 264.671L53.8194 264.534V264.525C54.4539 263.787 55.1726 263.081 55.9697 262.412Z" stroke="#F5D581"/>
<path d="M91.7619 227.553C91.7619 227.829 91.9858 228.053 92.2619 228.053C92.538 228.053 92.7619 227.829 92.7619 227.553H91.7619ZM93.3825 216.759L93.0692 216.369L93.3825 216.759ZM201.812 129.608L202.126 129.997L201.812 129.608ZM306.31 128.667H203.065V129.667H306.31V128.667ZM201.499 129.218L93.0692 216.369L93.6957 217.148L202.126 129.997L201.499 129.218ZM91.7619 219.097V227.553H92.7619V219.097H91.7619ZM93.0692 216.369C92.2427 217.033 91.7619 218.037 91.7619 219.097H92.7619C92.7619 218.34 93.1053 217.623 93.6957 217.148L93.0692 216.369ZM203.065 128.667C202.496 128.667 201.943 128.861 201.499 129.218L202.126 129.997C202.392 129.783 202.723 129.667 203.065 129.667V128.667Z" fill="#F5D581"/>
<path d="M100 0.5H210C264.952 0.5 309.5 45.0477 309.5 100V309.5H0.5V100C0.5 45.0477 45.0477 0.5 100 0.5Z" stroke="#F5D581"/>
</svg>
