<svg width="262" height="47" fill="none" xmlns="http://www.w3.org/2000/svg"><path d="M62.052 12.4h1.332V25h-1.332V12.4zm17.762 0V25h-1.098l-8.1-10.224V25h-1.332V12.4h1.098L78.5 22.624V12.4h1.314zm8.36 1.152h-4.428V12.4h10.188v1.152h-4.428V25h-1.332V13.552zm18.598 10.296V25h-8.91V12.4h8.64v1.152h-7.308v4.482h6.516v1.134h-6.516v4.68h7.578zM120.307 25l-2.88-4.05c-.324.036-.66.054-1.008.054h-3.384V25h-1.332V12.4h4.716c1.608 0 2.868.384 3.78 1.152.912.768 1.368 1.824 1.368 3.168 0 .984-.252 1.818-.756 2.502-.492.672-1.2 1.158-2.124 1.458l3.078 4.32h-1.458zm-3.924-5.13c1.248 0 2.202-.276 2.862-.828.66-.552.99-1.326.99-2.322 0-1.02-.33-1.8-.99-2.34-.66-.552-1.614-.828-2.862-.828h-3.348v6.318h3.348zm10.128-7.47h1.332V25h-1.332V12.4zm12.74 12.708c-1.248 0-2.382-.276-3.402-.828a6.262 6.262 0 0 1-2.376-2.304c-.564-.972-.846-2.064-.846-3.276 0-1.212.282-2.304.846-3.276a6.13 6.13 0 0 1 2.376-2.286c1.02-.564 2.154-.846 3.402-.846 1.248 0 2.37.276 3.366.828a6.092 6.092 0 0 1 2.376 2.304c.576.972.864 2.064.864 3.276 0 1.212-.288 2.31-.864 3.294a6.13 6.13 0 0 1-2.376 2.286c-.996.552-2.118.828-3.366.828zm0-1.188c.996 0 1.896-.222 2.7-.666a4.968 4.968 0 0 0 1.89-1.872c.456-.804.684-1.698.684-2.682s-.228-1.872-.684-2.664a4.805 4.805 0 0 0-1.89-1.872c-.804-.456-1.704-.684-2.7-.684-.996 0-1.902.228-2.718.684a4.93 4.93 0 0 0-1.908 1.872c-.456.792-.684 1.68-.684 2.664 0 .984.228 1.878.684 2.682a5.101 5.101 0 0 0 1.908 1.872c.816.444 1.722.666 2.718.666zM159.246 25l-2.88-4.05c-.324.036-.66.054-1.008.054h-3.384V25h-1.332V12.4h4.716c1.608 0 2.868.384 3.78 1.152.912.768 1.368 1.824 1.368 3.168 0 .984-.252 1.818-.756 2.502-.492.672-1.2 1.158-2.124 1.458l3.078 4.32h-1.458zm-3.924-5.13c1.248 0 2.202-.276 2.862-.828.66-.552.99-1.326.99-2.322 0-1.02-.33-1.8-.99-2.34-.66-.552-1.614-.828-2.862-.828h-3.348v6.318h3.348zm16.639-7.47h1.332v11.448h7.056V25h-8.388V12.4zm17.662 12.708c-1.248 0-2.382-.276-3.402-.828a6.262 6.262 0 0 1-2.376-2.304c-.564-.972-.846-2.064-.846-3.276 0-1.212.282-2.304.846-3.276a6.13 6.13 0 0 1 2.376-2.286c1.02-.564 2.154-.846 3.402-.846 1.248 0 2.37.276 3.366.828a6.092 6.092 0 0 1 2.376 2.304c.576.972.864 2.064.864 3.276 0 1.212-.288 2.31-.864 3.294a6.13 6.13 0 0 1-2.376 2.286c-.996.552-2.118.828-3.366.828zm0-1.188c.996 0 1.896-.222 2.7-.666a4.968 4.968 0 0 0 1.89-1.872c.456-.804.684-1.698.684-2.682s-.228-1.872-.684-2.664a4.805 4.805 0 0 0-1.89-1.872c-.804-.456-1.704-.684-2.7-.684-.996 0-1.902.228-2.718.684a4.93 4.93 0 0 0-1.908 1.872c-.456.792-.685 1.68-.685 2.664 0 .984.229 1.878.685 2.682a5.101 5.101 0 0 0 1.908 1.872c.816.444 1.722.666 2.718.666zm16.467 1.188c-1.632 0-2.904-.468-3.816-1.404-.912-.936-1.368-2.298-1.368-4.086V12.4h1.332v7.164c0 1.464.33 2.556.99 3.276.66.72 1.614 1.08 2.862 1.08 1.26 0 2.22-.36 2.88-1.08.66-.72.99-1.812.99-3.276V12.4h1.296v7.218c0 1.788-.456 3.15-1.368 4.086-.9.936-2.166 1.404-3.798 1.404zM227.6 12.4V25h-1.098l-8.1-10.224V25h-1.332V12.4h1.098l8.118 10.224V12.4h1.314zm14.787 6.3h1.278v4.806a6.155 6.155 0 0 1-2.088 1.188 7.762 7.762 0 0 1-2.538.414c-1.26 0-2.394-.276-3.402-.828a6.13 6.13 0 0 1-2.376-2.286c-.576-.984-.864-2.082-.864-3.294 0-1.212.288-2.304.864-3.276a6.092 6.092 0 0 1 2.376-2.304c1.008-.552 2.148-.828 3.42-.828.96 0 1.842.156 2.646.468.804.3 1.482.75 2.034 1.35l-.828.846c-.996-.984-2.262-1.476-3.798-1.476-1.02 0-1.944.228-2.772.684a4.896 4.896 0 0 0-1.926 1.872c-.468.792-.702 1.68-.702 2.664 0 .984.234 1.872.702 2.664a5.064 5.064 0 0 0 1.926 1.872c.816.456 1.734.684 2.754.684 1.296 0 2.394-.324 3.294-.972V18.7zm15.757 5.148V25h-8.91V12.4h8.64v1.152h-7.308v4.482h6.516v1.134h-6.516v4.68h7.578z" fill="#9F7303"/><path d="M66.741 41.586v1.854H66.3V42h-5.76l-.009 1.44h-.441l.009-1.854h.342c.414-.036.702-.384.864-1.044.168-.66.27-1.584.306-2.772l.063-2.07h4.095v5.886h.972zm-4.707-3.78c-.036 1.02-.117 1.854-.243 2.502-.12.648-.327 1.074-.621 1.278h4.14v-5.472h-3.222l-.054 1.692zm6.013-.504h.45v4.005l3.348-4.005h.396V42h-.45v-4.005L68.443 42h-.396v-4.698zm8.1 2.25c.348.066.615.198.8.396a.966.966 0 0 1 .289.711c0 .276-.093.519-.28.729-.18.21-.425.372-.737.486a2.942 2.942 0 0 1-1.017.171c-.336 0-.666-.051-.99-.153a2.63 2.63 0 0 1-.837-.459l.18-.333c.21.18.459.318.747.414.294.096.59.144.89.144.445 0 .82-.093 1.126-.279.306-.192.459-.444.459-.756 0-.276-.13-.492-.387-.648-.252-.162-.594-.243-1.026-.243h-.756v-.342h.738c.378 0 .687-.075.927-.225.246-.15.369-.351.369-.603 0-.294-.135-.519-.405-.675-.264-.162-.603-.243-1.017-.243-.528 0-1.026.135-1.494.405l-.135-.36a3.407 3.407 0 0 1 1.683-.441c.522 0 .957.114 1.305.342.348.222.522.525.522.909a.92.92 0 0 1-.261.648 1.5 1.5 0 0 1-.693.405zm4.215-2.286c.582 0 1.029.15 1.341.45.312.294.468.729.468 1.305V42h-.432v-.837a1.59 1.59 0 0 1-.657.648c-.288.15-.633.225-1.035.225-.522 0-.936-.123-1.242-.369-.3-.246-.45-.57-.45-.972 0-.39.138-.705.414-.945.282-.246.729-.369 1.341-.369h1.611v-.378c0-.438-.12-.771-.36-.999-.234-.228-.579-.342-1.035-.342-.312 0-.612.054-.9.162a2.257 2.257 0 0 0-.72.432l-.225-.324c.234-.21.516-.372.846-.486.33-.12.675-.18 1.035-.18zm-.252 4.401c.39 0 .72-.09.99-.27.276-.18.483-.441.621-.783v-.882h-1.602c-.462 0-.798.084-1.008.252-.204.168-.306.399-.306.693a.88.88 0 0 0 .342.729c.228.174.549.261.963.261zM84 37.302h.45v4.005l3.347-4.005h.396V42h-.45v-4.005L84.395 42H84v-4.698zm2.078-.72c-.378 0-.684-.096-.918-.288-.234-.198-.354-.471-.36-.819h.333a.745.745 0 0 0 .27.585c.18.144.405.216.675.216s.492-.072.666-.216a.745.745 0 0 0 .27-.585h.342c-.006.348-.126.621-.36.819-.234.192-.54.288-.918.288zm4.056.72h.45v2.142h3.186v-2.142h.45V42h-.45v-2.16h-3.186V42h-.45v-4.698zm10.213 4.734c-.444 0-.846-.102-1.206-.306a2.223 2.223 0 0 1-.837-.846 2.489 2.489 0 0 1-.306-1.233c0-.456.102-.864.306-1.224.204-.366.483-.651.837-.855.36-.204.762-.306 1.206-.306.444 0 .843.102 1.197.306.36.204.642.489.846.855.204.36.306.768.306 1.224 0 .456-.102.867-.306 1.233-.204.36-.486.642-.846.846a2.354 2.354 0 0 1-1.197.306zm0-.405c.36 0 .681-.084.963-.252.288-.168.513-.402.675-.702.168-.3.252-.642.252-1.026s-.084-.726-.252-1.026a1.768 1.768 0 0 0-.675-.702 1.845 1.845 0 0 0-.963-.252c-.36 0-.684.084-.972.252a1.853 1.853 0 0 0-.675.702c-.162.3-.243.642-.243 1.026s.08.726.243 1.026c.168.3.393.534.675.702.288.168.612.252.972.252zm5.992-4.257c.438 0 .825.099 1.161.297.342.192.609.462.801.81.192.348.288.75.288 1.206 0 .456-.099.864-.297 1.224a2.113 2.113 0 0 1-.819.837 2.378 2.378 0 0 1-1.197.297c-.516 0-.957-.126-1.323-.378-.36-.252-.636-.609-.828-1.071-.186-.462-.279-1.002-.279-1.62 0-.702.084-1.284.252-1.746.174-.462.432-.825.774-1.089.348-.27.792-.471 1.332-.603l2.079-.504.072.423-1.98.468c-.486.114-.882.282-1.188.504-.3.216-.525.513-.675.891-.15.378-.228.861-.234 1.449.156-.432.417-.771.783-1.017a2.198 2.198 0 0 1 1.278-.378zm-.054 4.284c.354 0 .672-.084.954-.252a1.74 1.74 0 0 0 .657-.693c.156-.3.234-.639.234-1.017 0-.378-.078-.711-.234-.999a1.62 1.62 0 0 0-.657-.675 1.85 1.85 0 0 0-.954-.243c-.36 0-.681.081-.963.243a1.62 1.62 0 0 0-.657.675 2.065 2.065 0 0 0-.234.999c0 .378.078.717.234 1.017.156.294.375.525.657.693.282.168.603.252.963.252zm10.101-4.356V42h-6.318v-4.698h.45v4.302h2.493v-4.302h.45v4.302h2.475v-4.302h.45zm.738 4.302v1.458h-.432V42h-.792v-.396h1.224zm5.21-1.845h-4.041c.012.366.105.693.279.981.174.282.408.501.702.657.3.156.636.234 1.008.234.306 0 .588-.054.846-.162.264-.114.483-.279.657-.495l.261.297a1.998 1.998 0 0 1-.774.567 2.495 2.495 0 0 1-.999.198c-.468 0-.885-.102-1.251-.306a2.25 2.25 0 0 1-.864-.846 2.457 2.457 0 0 1-.306-1.233c0-.456.096-.864.288-1.224.198-.366.468-.651.81-.855a2.205 2.205 0 0 1 1.152-.306c.426 0 .807.102 1.143.306.342.198.609.477.801.837.198.36.297.768.297 1.224l-.009.126zm-2.232-2.097c-.33 0-.627.075-.891.225a1.67 1.67 0 0 0-.639.621 2.027 2.027 0 0 0-.27.9h3.6a1.884 1.884 0 0 0-.27-.9 1.76 1.76 0 0 0-.639-.621 1.771 1.771 0 0 0-.891-.225zm5.611 4.374c-.456 0-.864-.102-1.224-.306a2.204 2.204 0 0 1-.846-.846 2.489 2.489 0 0 1-.306-1.233c0-.462.102-.873.306-1.233.204-.366.486-.648.846-.846.36-.204.768-.306 1.224-.306a2.3 2.3 0 0 1 1.026.225c.312.144.564.357.756.639l-.333.243a1.556 1.556 0 0 0-.63-.522 1.843 1.843 0 0 0-.819-.18 1.96 1.96 0 0 0-.99.252 1.767 1.767 0 0 0-.684.693c-.162.3-.243.645-.243 1.035 0 .39.081.735.243 1.035.168.3.396.534.684.702.294.162.624.243.99.243.3 0 .573-.057.819-.171.252-.12.462-.297.63-.531l.333.243a1.887 1.887 0 0 1-.756.648 2.38 2.38 0 0 1-1.026.216zm6.146-4.329h-1.836V42h-.45v-4.293h-1.836v-.405h4.122v.405zm3.745 1.872c.69.12 1.035.507 1.035 1.161 0 .408-.15.72-.45.936-.294.216-.738.324-1.332.324h-2.034v-4.698h1.98c.522 0 .93.105 1.224.315.3.204.45.498.45.882 0 .276-.078.507-.234.693-.15.18-.363.309-.639.387zm-2.34-.135h1.512c.402 0 .711-.075.927-.225.216-.156.324-.378.324-.666 0-.294-.108-.513-.324-.657-.21-.15-.519-.225-.927-.225h-1.512v1.773zm1.584 2.187c.894 0 1.341-.303 1.341-.909 0-.318-.102-.552-.306-.702-.204-.15-.525-.225-.963-.225h-1.656v1.836h1.584zm7.394-1.872h-4.041c.012.366.105.693.279.981.174.282.408.501.702.657.3.156.636.234 1.008.234.306 0 .588-.054.846-.162.264-.114.483-.279.657-.495l.261.297a1.998 1.998 0 0 1-.774.567 2.495 2.495 0 0 1-.999.198c-.468 0-.885-.102-1.251-.306a2.25 2.25 0 0 1-.864-.846 2.457 2.457 0 0 1-.306-1.233c0-.456.096-.864.288-1.224.198-.366.468-.651.81-.855a2.205 2.205 0 0 1 1.152-.306c.426 0 .807.102 1.143.306.342.198.609.477.801.837.198.36.297.768.297 1.224l-.009.126zm-2.232-2.097c-.33 0-.627.075-.891.225a1.67 1.67 0 0 0-.639.621 2.027 2.027 0 0 0-.27.9h3.6a1.884 1.884 0 0 0-.27-.9 1.76 1.76 0 0 0-.639-.621 1.771 1.771 0 0 0-.891-.225zm3.711-.36h.45v2.142h3.186v-2.142h.45V42h-.45v-2.16h-3.186V42h-.45v-4.698zm6.029 0h.45v2.142h3.186v-2.142h.45V42h-.45v-2.16H150.2V42h-.45v-4.698zm7.884 1.71c.582.006 1.026.135 1.332.387.306.246.459.609.459 1.089 0 .498-.162.879-.486 1.143-.324.264-.792.393-1.404.387L155.78 42v-4.698h.45v1.692l1.404.018zm2.655-1.71h.45V42h-.45v-4.698zm-2.772 4.356c.48.006.843-.09 1.089-.288.246-.198.369-.492.369-.882 0-.378-.12-.657-.36-.837-.24-.186-.606-.285-1.098-.297l-1.287-.009v2.295l1.287.018zm8.096.342-1.611-2.097L162.391 42h-.513l1.863-2.421-1.764-2.277h.513l1.512 1.953 1.512-1.953h.504l-1.764 2.277 1.89 2.421h-.531zm8.087-4.698V42h-.45v-4.293h-3.204V42h-.45v-4.698h4.104zm4.31-.036c.438 0 .834.102 1.188.306.354.204.63.486.828.846.204.36.306.771.306 1.233 0 .462-.102.876-.306 1.242-.198.36-.474.642-.828.846-.354.198-.75.297-1.188.297-.414 0-.789-.096-1.125-.288a2.058 2.058 0 0 1-.783-.819v2.817h-.45v-6.444h.432v1.107a2.03 2.03 0 0 1 .783-.837 2.189 2.189 0 0 1 1.143-.306zm-.027 4.365c.36 0 .684-.084.972-.252.288-.168.513-.402.675-.702.168-.3.252-.642.252-1.026s-.084-.726-.252-1.026a1.768 1.768 0 0 0-.675-.702 1.893 1.893 0 0 0-.972-.252c-.36 0-.684.084-.972.252a1.853 1.853 0 0 0-.675.702c-.162.3-.243.642-.243 1.026s.081.726.243 1.026c.168.3.393.534.675.702.288.168.612.252.972.252zm5.684.405c-.444 0-.846-.102-1.206-.306a2.223 2.223 0 0 1-.837-.846 2.489 2.489 0 0 1-.306-1.233c0-.456.102-.864.306-1.224.204-.366.483-.651.837-.855.36-.204.762-.306 1.206-.306.444 0 .843.102 1.197.306.36.204.642.489.846.855.204.36.306.768.306 1.224 0 .456-.102.867-.306 1.233-.204.36-.486.642-.846.846a2.354 2.354 0 0 1-1.197.306zm0-.405c.36 0 .681-.084.963-.252.288-.168.513-.402.675-.702.168-.3.252-.642.252-1.026s-.084-.726-.252-1.026a1.768 1.768 0 0 0-.675-.702 1.845 1.845 0 0 0-.963-.252c-.36 0-.684.084-.972.252a1.853 1.853 0 0 0-.675.702c-.162.3-.243.642-.243 1.026s.081.726.243 1.026c.168.3.393.534.675.702.288.168.612.252.972.252zm5.714.405c-.456 0-.864-.102-1.224-.306a2.204 2.204 0 0 1-.846-.846 2.489 2.489 0 0 1-.306-1.233c0-.462.102-.873.306-1.233.204-.366.486-.648.846-.846.36-.204.768-.306 1.224-.306a2.3 2.3 0 0 1 1.026.225c.312.144.564.357.756.639l-.333.243a1.556 1.556 0 0 0-.63-.522 1.843 1.843 0 0 0-.819-.18 1.96 1.96 0 0 0-.99.252 1.767 1.767 0 0 0-.684.693c-.162.3-.243.645-.243 1.035 0 .39.081.735.243 1.035.168.3.396.534.684.702.294.162.624.243.99.243.3 0 .573-.057.819-.171.252-.12.462-.297.63-.531l.333.243a1.887 1.887 0 0 1-.756.648 2.38 2.38 0 0 1-1.026.216zm6.146-4.329h-1.836V42h-.45v-4.293h-1.836v-.405h4.122v.405zm3.331-.441c.438 0 .834.102 1.188.306.354.204.63.486.828.846.204.36.306.771.306 1.233 0 .462-.102.876-.306 1.242-.198.36-.474.642-.828.846-.354.198-.75.297-1.188.297-.414 0-.789-.096-1.125-.288a2.058 2.058 0 0 1-.783-.819v2.817h-.45v-6.444h.432v1.107a2.03 2.03 0 0 1 .783-.837 2.189 2.189 0 0 1 1.143-.306zm-.027 4.365c.36 0 .684-.084.972-.252.288-.168.513-.402.675-.702.168-.3.252-.642.252-1.026s-.084-.726-.252-1.026a1.768 1.768 0 0 0-.675-.702 1.893 1.893 0 0 0-.972-.252c-.36 0-.684.084-.972.252a1.853 1.853 0 0 0-.675.702c-.162.3-.243.642-.243 1.026s.081.726.243 1.026c.168.3.393.534.675.702.288.168.612.252.972.252zm5.351-4.365c.582 0 1.029.15 1.341.45.312.294.468.729.468 1.305V42h-.432v-.837a1.59 1.59 0 0 1-.657.648c-.288.15-.633.225-1.035.225-.522 0-.936-.123-1.242-.369-.3-.246-.45-.57-.45-.972 0-.39.138-.705.414-.945.282-.246.729-.369 1.341-.369h1.611v-.378c0-.438-.12-.771-.36-.999-.234-.228-.579-.342-1.035-.342-.312 0-.612.054-.9.162a2.257 2.257 0 0 0-.72.432l-.225-.324c.234-.21.516-.372.846-.486.33-.12.675-.18 1.035-.18zm-.252 4.401c.39 0 .72-.09.99-.27.276-.18.483-.441.621-.783v-.882h-1.602c-.462 0-.798.084-1.008.252-.204.168-.306.399-.306.693a.88.88 0 0 0 .342.729c.228.174.549.261.963.261zm3.89-4.365h.45v2.142h3.186v-2.142h.45V42h-.45v-2.16h-3.186V42h-.45v-4.698zm7.928 4.734c-.456 0-.864-.102-1.224-.306a2.204 2.204 0 0 1-.846-.846 2.489 2.489 0 0 1-.306-1.233c0-.462.102-.873.306-1.233.204-.366.486-.648.846-.846.36-.204.768-.306 1.224-.306a2.3 2.3 0 0 1 1.026.225c.312.144.564.357.756.639l-.333.243a1.556 1.556 0 0 0-.63-.522 1.843 1.843 0 0 0-.819-.18 1.96 1.96 0 0 0-.99.252 1.767 1.767 0 0 0-.684.693c-.162.3-.243.645-.243 1.035 0 .39.081.735.243 1.035.168.3.396.534.684.702.294.162.624.243.99.243.3 0 .573-.057.819-.171.252-.12.462-.297.63-.531l.333.243a1.887 1.887 0 0 1-.756.648 2.38 2.38 0 0 1-1.026.216zm6.146-4.329h-1.836V42h-.45v-4.293h-1.836v-.405h4.122v.405zm3.745 1.872c.69.12 1.035.507 1.035 1.161 0 .408-.15.72-.45.936-.294.216-.738.324-1.332.324h-2.034v-4.698h1.98c.522 0 .93.105 1.224.315.3.204.45.498.45.882 0 .276-.078.507-.234.693-.15.18-.363.309-.639.387zm-2.34-.135h1.512c.402 0 .711-.075.927-.225.216-.156.324-.378.324-.666 0-.294-.108-.513-.324-.657-.21-.15-.519-.225-.927-.225h-1.512v1.773zm1.584 2.187c.894 0 1.341-.303 1.341-.909 0-.318-.102-.552-.306-.702-.204-.15-.525-.225-.963-.225h-1.656v1.836h1.584z" fill="#000"/><path d="M42 27.483V46.5a.474.474 0 0 1-.464.483H16.964a.474.474 0 0 1-.464-.483v-5.012h4.071c.513 0 .929-.433.929-.966V37h4.071c.513 0 .929-.432.929-.966V31.83h4.071c.513 0 .929-.432.929-.966V27h10.036c.256 0 .464.216.464.483z" fill="#F5D581"/><path stroke="#F5D581" d="M20.518.87v5.223"/><path d="M17.566 6.093h6.646l1.9 6.092H15.666l1.899-6.092z" stroke="#F5D581" stroke-linejoin="round"/><path d="M4.5 41.5h5v3a1 1 0 0 1-1 1h-3a1 1 0 0 1-1-1v-3zM36.5 28.722v-9.574M32 27.5v-8M27 33.944V20M22 38.296V24.5M17 42.296V29" stroke="#F5D581"/><path d="M3.5 41h7c.276 0 .5.112.5.25v.5c0 .138-.224.25-.5.25h-7c-.276 0-.5-.112-.5-.25v-.5c0-.138.224-.25.5-.25z" fill="#F5D581"/><path d="M5.685 40.069c.071.08.135.164.19.252l.026.043c.128.221.226.453.293.691a3.402 3.402 0 0 1-1.07-.713 2.875 2.875 0 0 1-.518-.996c.41.174.777.42 1.08.723zM6.43 39.364a3.91 3.91 0 0 1 .455-1.376c.158.462.232.958.212 1.459a2.195 2.195 0 0 1-.032.227 4.747 4.747 0 0 0-.338.949 4.752 4.752 0 0 0-.304-.878 2.903 2.903 0 0 1 .007-.38zM7.873 40.1c.413-.345.93-.62 1.512-.803a2.709 2.709 0 0 1-.627 1.012 4.412 4.412 0 0 1-1.503.795c.082-.251.207-.497.376-.733l.021-.03a2.25 2.25 0 0 1 .221-.241z" stroke="#F5D581"/><path d="M12 34.5a.5.5 0 0 0 1 0h-1zm1.494-2.394.334.372-.334-.372zm13.352-12.01.335.372-.335-.372zM41.5 19.083H28.184v1H41.5v-1zm-14.988.642-13.353 12.01.67.743 13.352-12.01-.67-.743zM12 34.337v.163h1v-.163h-1zm1.16-2.603A3.5 3.5 0 0 0 12 34.337h1a2.5 2.5 0 0 1 .828-1.86l-.669-.743zm15.024-12.65a2.5 2.5 0 0 0-1.672.64l.669.744a1.5 1.5 0 0 1 1.003-.385v-1z" fill="#F5D581"/><path d="M.5 21C.5 9.678 9.678.5 21 .5S41.5 9.678 41.5 21v25.5H.5V21z" stroke="#F5D581"/></svg>